<?xml version="1.0" standalone="no"?>
<!DOCTYPE svg PUBLIC "-//W3C//DTD SVG 20010904//EN"
 "http://www.w3.org/TR/2001/REC-SVG-20010904/DTD/svg10.dtd">
<svg version="1.0" xmlns="http://www.w3.org/2000/svg"
 width="700.000000pt" height="700.000000pt" viewBox="0 0 700.000000 700.000000"
 preserveAspectRatio="xMidYMid meet">
<metadata>
Created by potrace 1.11, written by Peter Selinger 2001-2013
</metadata>
<g transform="translate(0.000000,700.000000) scale(0.100000,-0.100000)"
fill="#000000" stroke="none">
<path d="M1701 6861 c-357 -616 -599 -1153 -739 -1641 -53 -184 -113 -460
-128 -589 -3 -31 -8 -58 -9 -61 -8 -14 -19 -226 -19 -380 -1 -270 20 -437 80
-667 86 -325 263 -658 483 -908 66 -74 235 -241 296 -291 33 -27 62 -51 65
-54 28 -29 252 -183 375 -257 183 -111 424 -226 695 -333 163 -64 229 -126
287 -265 58 -140 75 -346 36 -450 -17 -46 -24 -53 -88 -87 -131 -70 -254 -102
-690 -178 -263 -45 -363 -63 -420 -75 -11 -3 -45 -10 -75 -16 -107 -21 -293
-70 -320 -84 -38 -20 -77 -69 -89 -110 -19 -71 9 -197 78 -350 l30 -65 1953 0
1953 0 24 58 c63 152 77 200 85 286 7 74 -32 149 -94 181 -39 20 -291 82 -410
101 -19 3 -38 8 -41 10 -6 3 -121 23 -174 30 -16 2 -50 8 -75 14 -47 10 -136
25 -205 35 -100 15 -348 68 -425 92 -107 33 -236 96 -250 124 -13 24 -18 44
-29 116 -23 158 25 361 115 479 67 88 89 102 294 183 801 317 1357 768 1664
1351 135 258 228 575 253 875 9 102 9 438 0 531 -8 81 -25 212 -32 234 -2 8
-6 31 -9 50 -3 19 -8 49 -11 65 -5 27 -7 40 -19 100 -19 93 -68 277 -113 425
-22 70 -120 345 -139 388 -8 17 -21 47 -29 66 -8 19 -15 37 -15 42 0 4 -11 30
-24 58 -13 28 -42 92 -64 141 -71 162 -294 592 -379 730 -7 11 -16 27 -20 35
-4 8 -31 57 -61 108 l-54 92 -1718 0 -1718 0 -81 -139z m3342 -172 c11 -12
145 -253 211 -379 276 -521 458 -991 555 -1431 16 -74 32 -154 36 -179 3 -25
8 -52 10 -60 19 -72 30 -241 30 -445 0 -244 -7 -319 -40 -481 -5 -21 -7 -21
-402 -20 l-397 1 -3 40 c-23 289 -179 508 -433 608 -100 39 -172 50 -284 44
-350 -19 -617 -288 -641 -647 -2 -19 -3 -38 -4 -41 -1 -3 -568 -6 -1261 -6
-1140 0 -1260 2 -1264 16 -46 170 -57 678 -20 874 3 16 7 38 9 50 12 90 19
133 37 207 11 47 22 96 25 110 2 14 9 43 15 65 6 22 13 45 14 50 110 417 333
937 619 1445 26 47 59 106 73 132 16 29 34 48 47 50 33 5 3064 2 3068 -3z
m-1217 -4872 c-123 -103 -228 -309 -264 -520 -9 -53 -9 -301 0 -344 19 -97 64
-195 111 -243 92 -95 299 -187 542 -240 152 -33 241 -50 285 -55 14 -1 52 -8
85 -14 33 -6 77 -13 99 -17 21 -3 48 -8 60 -10 11 -2 37 -7 56 -10 19 -3 80
-14 135 -25 55 -11 108 -21 117 -22 9 -1 15 -3 12 -6 -7 -7 -3133 -7 -3128 0
2 4 21 9 41 13 43 6 57 9 133 24 30 7 69 14 85 16 183 30 522 90 565 101 30 8
69 16 86 19 51 9 204 61 278 95 254 117 328 247 322 561 -4 161 -6 178 -43
300 -44 147 -109 259 -210 358 l-53 52 362 0 363 0 -39 -33z"/>
</g>
</svg>
